<svg xmlns="http://www.w3.org/2000/svg" width="224" height="224" viewBox="0 0 24 24" fill="none" stroke="#3B82F6" stroke-width="2" stroke-linecap="round" stroke-linejoin="round" class="lucide lucide-brain-circuit"><path d="M12 5a3 3 0 1 0-5.997.125 4 4 0 0 0-2.526 5.77 4 4 0 0 0 .556 6.588A4 4 0 1 0 12 18Z"/><path d="M12 5a3 3 0 1 1 5.997.125 4 4 0 0 1 2.526 5.77 4 4 0 0 1-.556 6.588A4 4 0 1 1 12 18Z"/><path d="M15 13h4.5a2 2 0 0 1 1.96 1.6l.04.4"/><path d="M20 21v-1a2 2 0 0 0-2-2h-3"/><path d="M4 15v1a2 2 0 0 0 2 2h3"/><path d="M9 13H4.5a2 2 0 0 0-1.96 1.6l-.04.4"/><circle cx="15" cy="13" r="1"/><circle cx="9" cy="13" r="1"/></svg>
